%TF.GenerationSoftware,KiCad,Pcbnew,8.0.7*%
%TF.CreationDate,2024-12-29T12:34:30+05:30*%
%TF.ProjectId,Sketch,536b6574-6368-42e6-9b69-6361645f7063,v0.1*%
%TF.SameCoordinates,Original*%
%TF.FileFunction,Soldermask,Bot*%
%TF.FilePolarity,Negative*%
%FSLAX46Y46*%
G04 Gerber Fmt 4.6, Leading zero omitted, Abs format (unit mm)*
G04 Created by KiCad (PCBNEW 8.0.7) date 2024-12-29 12:34:30*
%MOMM*%
%LPD*%
G01*
G04 APERTURE LIST*
%ADD10R,1.524000X1.524000*%
%ADD11C,1.524000*%
%ADD12C,2.200000*%
%ADD13C,1.600000*%
%ADD14O,1.600000X1.600000*%
%ADD15R,1.700000X1.700000*%
%ADD16O,1.700000X1.700000*%
%ADD17R,1.800000X1.800000*%
%ADD18C,1.800000*%
G04 APERTURE END LIST*
D10*
%TO.C,U1*%
X126175000Y-76445000D03*
D11*
X126175000Y-78985000D03*
X126175000Y-81525000D03*
X126175000Y-84065000D03*
X126175000Y-86605000D03*
X126175000Y-89145000D03*
X126175000Y-91685000D03*
X126175000Y-94225000D03*
X126175000Y-96765000D03*
X126175000Y-99305000D03*
X126175000Y-101845000D03*
X126175000Y-104385000D03*
X126175000Y-106925000D03*
X126175000Y-109465000D03*
X126175000Y-112005000D03*
X151575000Y-112005000D03*
X151575000Y-109465000D03*
X151575000Y-106925000D03*
X151575000Y-104385000D03*
X151575000Y-101845000D03*
X151575000Y-99305000D03*
X151575000Y-96765000D03*
X151575000Y-94225000D03*
X151575000Y-91685000D03*
X151575000Y-89145000D03*
X151575000Y-86605000D03*
X151575000Y-84065000D03*
X151575000Y-81525000D03*
X151575000Y-78985000D03*
X151575000Y-76445000D03*
%TD*%
D12*
%TO.C,H4*%
X100625000Y-121675000D03*
%TD*%
%TO.C,H3*%
X100625000Y-73925000D03*
%TD*%
%TO.C,H2*%
X179375000Y-121675000D03*
%TD*%
%TO.C,H1*%
X179375000Y-73925000D03*
%TD*%
D13*
%TO.C,R1*%
X161900000Y-106905000D03*
D14*
X161900000Y-114525000D03*
%TD*%
D15*
%TO.C,J7*%
X130075000Y-101950000D03*
D16*
X132615000Y-101950000D03*
X135155000Y-101950000D03*
X137695000Y-101950000D03*
X140235000Y-101950000D03*
X142775000Y-101950000D03*
X145315000Y-101950000D03*
X147855000Y-101950000D03*
%TD*%
D15*
%TO.C,J6*%
X118500000Y-109385000D03*
D16*
X118500000Y-111925000D03*
%TD*%
D15*
%TO.C,J5*%
X118500000Y-84100000D03*
D16*
X118500000Y-86640000D03*
X118500000Y-89180000D03*
X118500000Y-91720000D03*
X118500000Y-94260000D03*
X118500000Y-96800000D03*
%TD*%
D15*
%TO.C,J4*%
X103850000Y-80545000D03*
D16*
X103850000Y-83085000D03*
X103850000Y-85625000D03*
%TD*%
D15*
%TO.C,J3*%
X103825000Y-110485000D03*
D16*
X103825000Y-113025000D03*
X103825000Y-115565000D03*
%TD*%
D15*
%TO.C,J2*%
X172025000Y-109145000D03*
D16*
X172025000Y-111685000D03*
X172025000Y-114225000D03*
%TD*%
D15*
%TO.C,J1*%
X171950000Y-79820000D03*
D16*
X171950000Y-82360000D03*
X171950000Y-84900000D03*
%TD*%
D17*
%TO.C,D1*%
X157800000Y-107025000D03*
D18*
X155260000Y-107025000D03*
%TD*%
M02*
