M48
; DRILL file {KiCad 8.0.7} date 2024-12-29T12:34:23+0530
; FORMAT={-:-/ absolute / metric / decimal}
; #@! TF.CreationDate,2024-12-29T12:34:23+05:30
; #@! TF.GenerationSoftware,Kicad,Pcbnew,8.0.7
; #@! TF.FileFunction,MixedPlating,1,2
FMAT,2
METRIC
; #@! TA.AperFunction,Plated,PTH,ViaDrill
T1C0.300
; #@! TA.AperFunction,Plated,PTH,ComponentDrill
T2C0.762
; #@! TA.AperFunction,Plated,PTH,ComponentDrill
T3C0.800
; #@! TA.AperFunction,Plated,PTH,ComponentDrill
T4C0.900
; #@! TA.AperFunction,Plated,PTH,ComponentDrill
T5C1.000
; #@! TA.AperFunction,NonPlated,NPTH,ComponentDrill
T6C2.200
%
G90
G05
T1
X100.4Y-85.625
X171.95Y-88.95
X174.45Y-114.2
X174.45Y-114.2
T2
X126.175Y-76.445
X126.175Y-78.985
X126.175Y-81.525
X126.175Y-84.065
X126.175Y-86.605
X126.175Y-89.145
X126.175Y-91.685
X126.175Y-94.225
X126.175Y-96.765
X126.175Y-99.305
X126.175Y-101.845
X126.175Y-104.385
X126.175Y-106.925
X126.175Y-109.465
X126.175Y-112.005
X151.575Y-76.445
X151.575Y-78.985
X151.575Y-81.525
X151.575Y-84.065
X151.575Y-86.605
X151.575Y-89.145
X151.575Y-91.685
X151.575Y-94.225
X151.575Y-96.765
X151.575Y-99.305
X151.575Y-101.845
X151.575Y-104.385
X151.575Y-106.925
X151.575Y-109.465
X151.575Y-112.005
T3
X161.9Y-106.905
X161.9Y-114.525
T4
X155.26Y-107.025
X157.8Y-107.025
T5
X103.825Y-110.485
X103.825Y-113.025
X103.825Y-115.565
X103.85Y-80.545
X103.85Y-83.085
X103.85Y-85.625
X118.5Y-84.1
X118.5Y-86.64
X118.5Y-89.18
X118.5Y-91.72
X118.5Y-94.26
X118.5Y-96.8
X118.5Y-109.385
X118.5Y-111.925
X130.075Y-101.95
X132.615Y-101.95
X135.155Y-101.95
X137.695Y-101.95
X140.235Y-101.95
X142.775Y-101.95
X145.315Y-101.95
X147.855Y-101.95
X171.95Y-79.82
X171.95Y-82.36
X171.95Y-84.9
X172.025Y-109.145
X172.025Y-111.685
X172.025Y-114.225
T6
X100.625Y-73.925
X100.625Y-121.675
X179.375Y-73.925
X179.375Y-121.675
M30
